<?xml version="1.0" encoding="utf-8"?>
<!-- Generator: Adobe Illustrator 26.3.1, SVG Export Plug-In . SVG Version: 6.00 Build 0)  -->
<svg version="1.1" id="Layer_1" xmlns="http://www.w3.org/2000/svg" xmlns:xlink="http://www.w3.org/1999/xlink" x="0px" y="0px"
	 viewBox="0 0 1004.67 376.4" style="enable-background:new 0 0 1004.67 376.4;" xml:space="preserve">
<style type="text/css">
	.st0{fill:url(#SVGID_1_);}
	.st1{fill:#007FFF;}
	.st2{fill:#0047AB;}
	.st3{fill:#3400E1;}
	.st4{fill:#233B60;}
	.st5{fill:#3E3CC9;}
	.st6{fill:#FFFFFF;}
	.st7{fill:#231F20;}
	.st8{fill:url(#SVGID_00000015351457745923064080000014789845294479140283_);}
	.st9{fill:url(#SVGID_00000059999173255090761790000008733622274378020511_);}
	.st10{fill:url(#SVGID_00000178924662586160017860000001182615030474256773_);}
	.st11{fill:url(#SVGID_00000160881472604149634160000009698492629113036196_);}
	.st12{fill:url(#SVGID_00000157294303660503763570000004900534819360165283_);}
	.st13{fill:url(#SVGID_00000007411376970635694870000006088230500043317426_);}
	.st14{fill:url(#SVGID_00000051371728658470494610000014557909664029471147_);}
	.st15{fill:url(#SVGID_00000138548843774060001000000011143241614104914106_);}
	.st16{fill:url(#SVGID_00000117667354200435533200000013995610448493832074_);}
	.st17{fill:url(#SVGID_00000016075152310796768840000011534555826834121913_);}
	.st18{fill:url(#SVGID_00000141415531089196534640000000082281841990800801_);}
	.st19{fill:url(#SVGID_00000157994004347551295290000014483808222751360178_);}
	.st20{fill:url(#SVGID_00000155826901789388341980000004575763442494914744_);}
	.st21{fill:url(#SVGID_00000051363182300663776880000007273379635840865971_);}
	.st22{fill:url(#SVGID_00000108277752143863515040000016869786767989483655_);}
	.st23{fill:url(#SVGID_00000182523812940333967650000010064968145043417524_);}
	.st24{fill:url(#SVGID_00000117634046450935631550000016473704950973308551_);}
	.st25{fill:url(#SVGID_00000047040366313401783410000010975899275382871691_);}
	.st26{fill:url(#SVGID_00000023976934927628791170000009884686378486116794_);}
	.st27{fill:url(#SVGID_00000040567092512952950550000001699051617294747316_);}
	.st28{fill:url(#SVGID_00000036215204079005924930000001472785622222494120_);}
	.st29{fill:url(#SVGID_00000179629085171037121830000010710749083483296959_);}
	.st30{fill:url(#SVGID_00000148655442898511043100000009896938718736200359_);}
	.st31{fill:url(#SVGID_00000040540414045175914930000005485651514651294338_);}
	.st32{fill:url(#SVGID_00000007414956048366870290000016685921652014865850_);}
	.st33{fill:url(#SVGID_00000075871148944569197200000013658153125646736277_);}
	.st34{fill:url(#SVGID_00000170985320978455988900000013555462146203669924_);}
	.st35{fill:url(#SVGID_00000125587974148039334870000012751819603525244801_);}
	.st36{fill:url(#SVGID_00000073709953035893322710000008872937275312716688_);}
	.st37{fill:#3457D5;}
	.st38{fill:#1DA1F2;}
	.st39{fill:#0093AF;}
	.st40{fill:#0071C5;}
	.st41{fill:#6F00FF;}
	.st42{fill:#1E90FF;}
	.st43{fill:#0F0F60;}
	.st44{fill:url(#SVGID_00000166663518871191612360000009693647666095861664_);}
</style>
<g>
	<g>
		<path class="st4" d="M283.63,196.07c1.39,4.49,4.82,7.73,11.02,7.73c3.62,0,6.27-1.13,8.15-2.93l13.1,5.34
			c-4.37,4.92-11.35,8.28-21.25,8.28c-18.61,0-26.93-11.86-26.93-23.62c0-11.76,8.33-23.62,26.93-23.62
			c15.71,0,24.07,8.46,26.3,18.16c0.41,1.79,0.64,3.62,0.64,5.46c0,1.75,0,5.22,0,5.22H283.63z M305.59,185.4
			c-1.43-4.36-4.86-7.49-10.94-7.49c-6.09,0-9.51,3.13-10.94,7.49H305.59z"/>
		<path class="st4" d="M390.29,154.57v58.09h-16.6l-24.95-35.04v35.04h-15.19v-58.09h17.27l24.28,34.1v-34.1H390.29z"/>
		<path class="st4" d="M449.83,190.85c0,11.76-8.33,23.62-26.94,23.62c-18.61,0-26.93-11.86-26.93-23.62
			c0-11.76,8.33-23.62,26.93-23.62C441.5,167.23,449.83,179.1,449.83,190.85z M434.65,190.85c0-6.98-3.34-12.94-11.76-12.94
			c-8.42,0-11.76,5.96-11.76,12.94c0,6.98,3.34,12.95,11.76,12.95C431.31,203.8,434.65,197.83,434.65,190.85z"/>
		<path class="st4" d="M472.79,179.67v20.88c0,0.79,0.64,1.43,1.43,1.43h6.55v10.68l-8.87-0.01c-7.9-0.01-14.31-6.42-14.31-14.32
			v-18.66h-7.99v-10.68h7.99v-11.56l15.19-2.86v14.42h7.99v10.68H472.79z"/>
		<path class="st4" d="M537.27,169.13v43.58h-15.19V207c-3.5,4.66-9.09,7.45-17.06,7.45c-11.94,0-21.62-9.03-21.62-23.58
			c0-14.55,9.68-23.58,21.62-23.58c7.97,0,13.56,2.79,17.06,7.45v-5.6H537.27z M522.09,190.42c-0.2-7.6-5.38-12.4-11.76-12.4
			c-6.51,0-11.78,4.99-11.78,12.85c0,7.86,5.27,12.84,11.78,12.84c6.38,0,11.56-4.8,11.76-12.4V190.42z"/>
		<path class="st4" d="M576.64,167.18v10.74h-5.3c-6.38,0-11.56,4.8-11.76,12.4v22.28H544.4v-43.47h15.19v5.5
			C563.09,169.97,568.67,167.18,576.64,167.18z"/>
		<path class="st4" d="M632.81,169.16v31.83c0,15.25-3.22,30.85-27.08,30.85h-11.62v-10.68h11.62c7.58,0,10.81-3.7,11.65-13.71
			c-3.52,4.47-9.03,7.14-16.82,7.14c-11.94,0-21.62-9.03-21.62-23.58c0-0.01,0-21.83,0-21.84h15.15v21.81c0,0.01,0,0.02,0,0.04
			c0,7.86,5.27,12.84,11.78,12.84c6.38,0,11.56-4.8,11.76-12.4v-22.29H632.81z"/>
	</g>
	<g>
		<path class="st1" d="M700.45,188.2c0,19.05-4.02,30.87-24.01,30.87c-20,0-24.01-11.81-24.01-30.87c0-19.06,4.02-30.87,24.01-30.87
			C696.44,157.33,700.45,169.14,700.45,188.2z M694.72,188.2c0-19.26-4.27-25.66-18.29-25.66c-14.01,0-18.28,6.39-18.28,25.66
			c0,19.26,4.27,25.65,18.28,25.65C690.45,213.85,694.72,207.46,694.72,188.2z"/>
		<path class="st1" d="M755.28,195.44v21.76h-5.71v-21.76h-0.01c0-12.67-5.14-18.35-17.75-18.35c-12.6,0-17.75,5.68-17.75,18.35
			h-0.01v21.76h-5.71v-43.5h5.71v6.38c2.93-5.49,8.41-8.21,17.76-8.21C747.6,171.87,755.28,179.58,755.28,195.44z"/>
		<path class="st1" d="M823.36,198.71c-1.67,12.78-7.43,20.35-23.43,20.35c-20,0-24.01-11.81-24.01-30.87
			c0-19.06,4.02-30.87,24.01-30.87c15.89,0,21.68,7.46,23.4,20.08l-5.67,0.83c-1.54-11.39-6.5-15.18-17.72-15.18
			c-14.01,0-18.28,5.87-18.28,25.14c0,19.26,4.27,25.14,18.28,25.14c11.31,0,16.27-3.84,17.77-15.45L823.36,198.71z"/>
		<path class="st1" d="M875.43,173.7v43.5h-5.71v-6.47c-2.89,5.54-8.26,8.29-17.47,8.29c-0.19,0-0.38,0-0.57,0
			c-15.79-0.19-23.38-7.99-23.19-23.85c0.19-15.86,8.01-23.48,23.76-23.29c9.15,0.11,14.56,2.79,17.48,8.09v-6.26H875.43z
			 M869.7,195.65c0.15-12.67-4.93-18.43-17.53-18.58c-0.18,0-0.36,0-0.54,0c-12.22,0-17.27,5.66-17.42,18.15
			c-0.15,12.67,4.93,18.42,17.53,18.58C864.32,213.96,869.55,208.33,869.7,195.65z"/>
		<path class="st1" d="M884.3,217.49V159.4h5.71v58.09H884.3z"/>
		<path class="st1" d="M898.9,217.49V159.4h5.71v58.09H898.9z"/>
	</g>
	<g>
		<g>
			<path class="st1" d="M213.92,257.21l-0.05,0c-2.43,0-4.4,1.97-4.4,4.4v11.27c0,2.9-2.35,5.26-5.26,5.26h-86.81
				c-2.9,0-5.26-2.35-5.26-5.26V103.51c0-2.9,2.35-5.26,5.26-5.26h13.44c1.37,0,2.47,1.11,2.47,2.47v3.98
				c0,3.56,2.81,6.45,6.27,6.45h42.44c3.46,0,6.27-2.89,6.27-6.45v-3.98c0-1.37,1.11-2.47,2.47-2.47h13.44
				c2.9,0,5.26,2.35,5.26,5.26l0,7.01c0,2.57,1.95,4.76,4.51,4.95c0.26,0.02,0.52,0.03,0.79,0.03l0,0c2.66,0,4.81-2.15,4.81-4.81
				v-7.19c0-8.49-6.88-15.37-15.37-15.37h-86.81c-8.49,0-15.37,6.88-15.37,15.37v13.13c-0.02,0.01-0.05,0.02-0.07,0.04l-1.44,1.13
				c-0.26,0.2-0.47,0.64-0.47,0.96v9.83c0,0.33,0.21,0.77,0.46,0.97l1.45,1.18c0.02,0.02,0.05,0.02,0.07,0.04v2.01
				c-0.02,0.01-0.05,0.02-0.07,0.04l-1.44,1.13c-0.26,0.2-0.47,0.64-0.47,0.96v20.93c0,0.33,0.21,0.77,0.46,0.97l1.45,1.18
				c0.02,0.02,0.05,0.02,0.07,0.04v0.65c-0.02,0.01-0.05,0.02-0.07,0.04l-1.44,1.13c-0.26,0.2-0.47,0.64-0.47,0.96v20.93
				c0,0.33,0.21,0.76,0.46,0.97l1.45,1.18c0.02,0.02,0.05,0.02,0.07,0.04v88.93c0,8.49,6.88,15.37,15.37,15.37h86.81
				c8.49,0,15.37-6.88,15.37-15.37v-10.96c0-2.31-1.7-4.27-3.98-4.59c-0.53-0.07-1.07-0.12-1.62-0.12H213.92z"/>
		</g>
		<g>
			<path class="st1" d="M205.74,151.9c-0.08-0.07-0.17-0.09-0.23-0.09c-0.06,0-0.18,0.02-0.27,0.12l-10.88,12.73
				c-0.72,0.84-1.76,1.31-2.86,1.31c-0.89,0-1.75-0.32-2.42-0.9l-6.35-5.44c-0.08-0.07-0.17-0.09-0.23-0.09
				c-0.06,0-0.18,0.02-0.27,0.12l-14.62,16.92c-0.08,0.09-0.09,0.19-0.08,0.26c0.01,0.07,0.03,0.16,0.12,0.24l6.37,5.46
				c0.08,0.07,0.17,0.09,0.23,0.09c0.06,0,0.18-0.02,0.27-0.12l6.47-7.48c0.72-0.83,1.75-1.31,2.85-1.31c0.89,0,1.75,0.32,2.42,0.9
				l6.35,5.45c0.08,0.07,0.17,0.08,0.23,0.08c0.06,0,0.18-0.02,0.27-0.12l19.04-22.17c0.13-0.15,0.11-0.37-0.04-0.5L205.74,151.9z"
				/>
			<path class="st1" d="M233.06,178.5c2.22-2.58,4.74-5.51,4.77-9.38c0.03-3.86-2.43-6.84-4.6-9.46c-1.47-1.78-2.46-3.02-2.81-4.13
				c-0.41-1.3-0.25-3.3-0.1-5.25c0.26-3.33,0.55-7.11-1.61-10.14c-2.18-3.06-5.87-4.01-9.12-4.85c-2.23-0.58-3.88-1.04-4.87-1.77
				c-0.96-0.71-1.88-2.14-3.06-4.09c-1.76-2.89-3.76-6.16-7.36-7.37c-0.87-0.29-1.77-0.44-2.74-0.44c-2.56-0.01-5.08,0.98-7.31,1.86
				c-1.92,0.75-3.73,1.46-5.16,1.46c-1.41-0.01-3.22-0.76-5.13-1.55c-2.25-0.93-4.79-1.98-7.39-1.99c-0.93,0-1.8,0.12-2.64,0.39
				c-3.63,1.14-5.68,4.38-7.5,7.24c-1.22,1.92-2.15,3.33-3.13,4.03c-1,0.71-2.66,1.15-4.9,1.69c-3.27,0.78-6.97,1.67-9.21,4.69
				c-2.22,2.99-1.99,6.77-1.79,10.11c0.14,2.31,0.21,4.04-0.2,5.24c-0.37,1.1-1.38,2.33-2.89,4.08c-2.22,2.58-4.73,5.51-4.77,9.38
				c-0.03,3.87,2.43,6.84,4.6,9.46c1.43,1.72,2.46,3.02,2.81,4.13c0.41,1.3,0.25,3.3,0.1,5.25c-0.26,3.33-0.55,7.11,1.61,10.14
				c2.18,3.06,5.87,4.01,9.12,4.85l2.79,0.73l-15.34,27.37c-0.61,1.04-0.88,2.28-0.48,3.42c0.5,1.42,1.3,1.16,1.49,1.12l15.93-4.21
				l4.43,16.78c0,0,0.08,0.3,0.49,0.3c1.6,0.01,3.1-0.85,3.89-2.19l17.23-30.61l17.31,30.96c0.78,1.35,2.28,2.22,3.88,2.22
				c0.4,0,0.49-0.3,0.49-0.3l4.55-16.75l15.9,4.32c0.19,0.04,0.99,0.31,1.5-1.11c0.4-1.14,0.15-2.38-0.46-3.42l-15.13-27.43
				l2.69-0.65c3.27-0.78,6.97-1.67,9.21-4.69c2.22-2.99,1.99-6.77,1.79-10.12c-0.11-1.94-0.23-3.95,0.2-5.24
				C230.55,181.48,231.61,180.19,233.06,178.5z M228.09,174.23c-1.56,1.81-3.32,3.87-4.13,6.27c-0.83,2.49-0.67,5.26-0.52,7.71
				c0.2,3.28,0.17,4.9-0.52,5.82c-0.7,0.95-2.26,1.45-5.47,2.22c-1.11,0.27-2.2,0.54-3.28,0.88c-1.62,0.52-2.86,1.1-3.9,1.85
				c-2.09,1.49-3.56,3.81-4.86,5.86c-1.78,2.81-2.77,4.13-3.97,4.51c-0.21,0.06-0.43,0.09-0.68,0.09c-1.01,0-2.53-0.55-4.84-1.5
				c-0.35-0.14-0.7-0.29-1.06-0.43c-1.91-0.77-4.14-1.59-6.51-1.61l-0.06,0c-2.24-0.01-4.44,0.71-6.48,1.5
				c-0.36,0.14-1.65,0.64-1.65,0.64l-2.72,0.87c-1.84,0.59-3.84-0.21-4.77-1.9l-1.36-2.47c-1.26-2.06-2.69-4.41-4.75-5.93
				c-1.03-0.76-2.25-1.37-3.87-1.92c-1.07-0.36-2.15-0.65-3.27-0.94c-3.2-0.83-4.74-1.36-5.43-2.32c-0.67-0.93-0.67-2.55-0.41-5.83
				c0.19-2.44,0.4-5.21-0.38-7.72c-0.76-2.41-2.49-4.5-4.01-6.34c-2.15-2.59-3.11-3.96-3.1-5.22c0.01-1.26,0.99-2.61,3.19-5.17
				c1.56-1.81,3.32-3.87,4.13-6.27c0.83-2.49,0.67-5.26,0.52-7.71c-0.2-3.28-0.17-4.9,0.52-5.82c0.7-0.95,2.25-1.45,5.48-2.22
				c2.37-0.57,5.06-1.21,7.17-2.72c2.09-1.49,3.56-3.81,4.85-5.85c1.79-2.82,2.78-4.13,3.99-4.51c0.21-0.06,0.43-0.09,0.67-0.08
				c1.01,0,2.54,0.55,4.84,1.5c2.29,0.95,4.89,2.02,7.63,2.04c2.66,0.01,5.25-1.01,7.56-1.91c2.29-0.9,3.81-1.42,4.82-1.41
				c0.26,0,0.49,0.03,0.76,0.12c1.15,0.38,2.11,1.72,3.85,4.57c1.26,2.07,2.68,4.41,4.75,5.94c2.09,1.55,4.77,2.24,7.13,2.85
				c3.21,0.83,4.75,1.36,5.43,2.32c0.67,0.93,0.67,2.55,0.41,5.84c-0.19,2.44-0.4,5.21,0.39,7.71c0.76,2.41,2.49,4.5,4.01,6.34
				c2.15,2.59,3.11,3.96,3.1,5.22C231.27,170.32,230.29,171.68,228.09,174.23z"/>
			<path class="st1" d="M167.01,184.15l-0.4-5.07c-0.02-0.24,0.27-0.39,0.46-0.23l5.62,4.66c0.19,0.16,0.09,0.46-0.16,0.48
				l-5.23,0.41C167.16,184.41,167.03,184.3,167.01,184.15z"/>
		</g>
		<path class="st1" d="M160.81,272L160.81,272c-5.46,0-9.89-4.43-9.89-9.89v0c0-5.46,4.43-9.89,9.89-9.89h0
			c5.46,0,9.89,4.43,9.89,9.89l0,0C170.7,267.57,166.28,272,160.81,272z"/>
	</g>
</g>
</svg>
